<?xml version="1.0" standalone="no"?>
<!DOCTYPE svg PUBLIC "-//W3C//DTD SVG 20010904//EN"
 "http://www.w3.org/TR/2001/REC-SVG-20010904/DTD/svg10.dtd">
<svg version="1.0" xmlns="http://www.w3.org/2000/svg"
 width="500.000000pt" height="500.000000pt" viewBox="0 0 500.000000 500.000000"
 preserveAspectRatio="xMidYMid meet">

<g transform="translate(0.000000,500.000000) scale(0.100000,-0.100000)"
fill="#000000" stroke="none">
<path d="M1715 3318 c-29 -16 -28 -15 -34 -61 l-6 -42 -85 -3 c-110 -3 -120
-13 -120 -118 l0 -74 -39 0 c-73 0 -71 6 -71 -170 0 -176 -2 -170 71 -170 l39
0 0 -74 c0 -105 10 -115 120 -118 l85 -3 6 -42 c9 -70 15 -73 154 -73 172 0
164 -10 167 204 l3 168 495 -1 495 -1 3 -167 c2 -138 5 -170 19 -185 14 -16
34 -18 144 -18 121 0 129 1 143 22 9 12 16 39 16 60 l0 38 89 0 c69 0 91 3
102 16 8 9 16 52 19 98 l5 81 38 -3 c64 -6 67 2 67 169 0 139 -1 149 -20 159
-12 6 -28 10 -38 9 -50 -5 -52 -2 -52 70 0 54 -4 74 -21 95 -19 24 -26 26
-105 26 l-84 0 0 35 c0 25 -8 44 -25 60 -22 23 -31 25 -129 25 -113 0 -154
-11 -161 -44 -3 -12 -6 -79 -8 -151 l-2 -130 -497 -3 -498 -2 0 144 c0 144 0
145 -26 165 -23 18 -40 21 -133 21 -59 0 -115 -6 -126 -12z m243 -470 l2 -438
-119 0 c-99 0 -120 3 -125 16 -3 9 -6 201 -6 428 0 313 3 415 12 424 9 9 46
12 123 10 l110 -3 3 -437z m1317 2 l0 -435 -114 -3 c-85 -2 -117 1 -123 10 -4
7 -8 200 -8 429 0 315 3 418 12 427 9 9 46 12 123 10 l110 -3 0 -435z m-1600
0 l0 -325 -60 -3 c-32 -2 -69 -1 -82 3 l-23 5 0 319 c0 246 3 321 13 325 6 2
44 4 82 3 l70 -2 0 -325z m1803 315 c9 -3 12 -75 12 -314 0 -358 8 -331 -104
-331 l-66 0 0 324 0 325 23 3 c25 4 115 -1 135 -7z m-2008 -315 l0 -130 -34 0
-34 0 -4 78 c-2 42 -2 101 0 130 l3 52 35 0 34 0 0 -130z m2130 0 l0 -130 -35
0 -35 0 0 130 0 130 35 0 35 0 0 -130z m-605 25 l0 -90 -497 -3 -498 -2 0 95
0 95 498 -2 497 -3 0 -90z"/>
<path d="M1842 2205 c-68 -21 -127 -76 -151 -140 -26 -70 -26 -110 -1 -178 31
-82 89 -128 188 -148 72 -15 141 -3 209 37 l43 25 0 104 0 105 -100 0 -100 0
0 -45 0 -45 45 0 c45 0 45 0 45 -35 0 -31 -3 -35 -37 -44 -52 -15 -61 -14
-108 9 -51 25 -75 65 -75 125 0 62 24 100 79 127 40 19 49 20 90 9 25 -7 54
-19 64 -28 19 -18 21 -16 64 45 21 30 7 45 -63 72 -62 23 -129 25 -192 5z"/>
<path d="M2253 2168 c13 -24 52 -88 85 -143 l62 -100 0 -92 0 -93 60 0 60 0 0
91 0 92 85 139 c47 76 85 141 85 144 0 3 -28 4 -62 2 l-62 -3 -46 -79 c-25
-44 -50 -81 -55 -82 -6 -2 -31 34 -56 79 l-46 82 -68 3 -67 3 25 -43z"/>
<path d="M2802 1978 l3 -233 53 -3 52 -3 0 138 c0 155 -3 155 70 18 54 -100
57 -105 85 -105 28 0 32 5 90 117 25 51 51 95 56 98 5 4 9 -49 9 -130 l0 -136
53 3 52 3 3 233 2 232 -68 0 -68 0 -64 -132 -63 -131 -33 64 c-17 35 -48 93
-67 129 l-34 65 -67 3 -66 3 2 -233z"/>
</g>
</svg>
